<svg width="33" height="33" viewBox="0 0 33 33" fill="none" xmlns="http://www.w3.org/2000/svg">
<path d="M11.1667 9.83333V4.5M21.8333 9.83333V4.5M9.83333 15.1667H23.1667M7.16667 28.5H25.8333C26.5406 28.5 27.2189 28.219 27.719 27.719C28.219 27.2189 28.5 26.5406 28.5 25.8333V9.83333C28.5 9.12609 28.219 8.44781 27.719 7.94772C27.2189 7.44762 26.5406 7.16667 25.8333 7.16667H7.16667C6.45942 7.16667 5.78115 7.44762 5.28105 7.94772C4.78095 8.44781 4.5 9.12609 4.5 9.83333V25.8333C4.5 26.5406 4.78095 27.2189 5.28105 27.719C5.78115 28.219 6.45942 28.5 7.16667 28.5Z" stroke="#232323" stroke-width="2" stroke-linecap="round" stroke-linejoin="round"/>
</svg>
