<svg width="33" height="33" viewBox="0 0 33 33" fill="none" xmlns="http://www.w3.org/2000/svg">
<path d="M16.5 11.1667V16.5L20.5 20.5M28.5 16.5C28.5 18.0759 28.1896 19.6363 27.5866 21.0922C26.9835 22.5481 26.0996 23.871 24.9853 24.9853C23.871 26.0996 22.5481 26.9835 21.0922 27.5866C19.6363 28.1896 18.0759 28.5 16.5 28.5C14.9241 28.5 13.3637 28.1896 11.9078 27.5866C10.4519 26.9835 9.12902 26.0996 8.01472 24.9853C6.90042 23.871 6.0165 22.5481 5.41345 21.0922C4.81039 19.6363 4.5 18.0759 4.5 16.5C4.5 13.3174 5.76428 10.2652 8.01472 8.01472C10.2652 5.76428 13.3174 4.5 16.5 4.5C19.6826 4.5 22.7348 5.76428 24.9853 8.01472C27.2357 10.2652 28.5 13.3174 28.5 16.5Z" stroke="#232323" stroke-width="2" stroke-linecap="round" stroke-linejoin="round"/>
</svg>
