<svg width="80" height="80" viewBox="0 0 80 80" fill="none" xmlns="http://www.w3.org/2000/svg">
<mask id="path-1-inside-1_132_658" fill="white">
<path d="M-3.49691e-06 80C10.5057 80 20.9086 77.9307 30.6147 73.9104C40.3207 69.89 49.1399 63.9972 56.5685 56.5685C63.9972 49.1399 69.89 40.3207 73.9104 30.6147C77.9307 20.9086 80 10.5057 80 0H0L-3.49691e-06 80Z"/>
</mask>
<path d="M-3.49691e-06 80C10.5057 80 20.9086 77.9307 30.6147 73.9104C40.3207 69.89 49.1399 63.9972 56.5685 56.5685C63.9972 49.1399 69.89 40.3207 73.9104 30.6147C77.9307 20.9086 80 10.5057 80 0H0L-3.49691e-06 80Z" fill="#FFF6EF" stroke="#FFF6EF" stroke-width="2" mask="url(#path-1-inside-1_132_658)"/>
</svg>
