<svg width="652" height="370" viewBox="0 0 652 370" fill="none" xmlns="http://www.w3.org/2000/svg">
<path d="M65.4575 166H76.6575C94.8575 166 108.457 155.6 116.457 139L111.657 169H21.4575C25.2575 167.2 27.6575 163.4 27.6575 159V10.8C27.6575 6.39999 25.2575 2.59999 21.4575 0.799994H64.4575C60.6575 2.59999 58.2575 6.39999 58.2575 10.8V159.2C58.2575 163 61.6575 166 65.4575 166ZM167.117 169H124.117C127.917 167.2 130.317 163.4 130.317 159V10.6C130.317 6.39999 127.917 2.59999 124.117 0.599996H167.117V0.799994C163.117 2.59999 160.717 6.39999 160.717 10.8V159C160.717 163.4 163.117 167.2 167.117 169ZM179.624 0.799994H289.024L293.624 30.8C286.224 15.2 273.624 4.79999 256.824 3.79999H256.424C252.824 3.79999 249.424 7 249.424 10.6V159C249.424 163.4 251.824 167.2 255.824 169H212.824C216.624 167.2 219.024 163.4 219.024 159V10.8C219.024 10.2 219.024 9.8 218.824 9.39999C218.424 6 215.024 3.79999 211.624 3.79999H211.224C194.624 5 182.224 15.2 174.824 30.8L179.624 0.799994ZM308.066 0.799994H417.466L422.066 30.8C414.666 15.2 402.066 4.79999 385.266 3.79999H384.866C381.266 3.79999 377.866 7 377.866 10.6V159C377.866 163.4 380.266 167.2 384.266 169H341.266C345.066 167.2 347.466 163.4 347.466 159V10.8C347.466 10.2 347.466 9.8 347.266 9.39999C346.866 6 343.466 3.79999 340.066 3.79999H339.666C323.066 5 310.666 15.2 303.266 30.8L308.066 0.799994ZM473.754 166H484.954C503.154 166 516.754 155.6 524.754 139L519.954 169H429.754C433.554 167.2 435.954 163.4 435.954 159V10.8C435.954 6.39999 433.554 2.59999 429.754 0.799994H472.754C468.954 2.59999 466.554 6.39999 466.554 10.8V159.2C466.554 163 469.954 166 473.754 166ZM593.214 3.79999H578.814C569.614 3.79999 569.214 14.4 569.214 16V16.2C569.214 27.2 571.414 38 576.414 47.6C579.614 53.4 583.614 59.2 589.014 62.4C589.614 62.8 591.414 63.6 591.614 63.8C594.014 64.8 596.214 65.2 598.214 65.2C609.414 65.2 612.814 51 612.814 51V87.2C612.814 87.2 609.814 81.6 590.814 69.4C590.814 69.4 589.414 68.4 589.014 68C579.214 60.8 572.614 46.6 569.214 37V159.2C569.214 163 572.214 166 576.014 166H593.214C611.414 166 625.014 155.6 632.814 139L628.214 169H532.414C536.214 167.2 538.614 163.4 538.614 159.2V10.8C538.614 6.39999 536.214 2.59999 532.414 0.799994H628.214L632.814 30.8C625.014 14.2 611.414 3.79999 593.214 3.79999ZM84.4261 350H95.6261C113.826 350 127.426 339.6 135.426 323L130.626 353H40.4261C44.2261 351.2 46.6261 347.4 46.6261 343V194.8C46.6261 190.4 44.2261 186.6 40.4261 184.8H83.4261C79.6261 186.6 77.2261 190.4 77.2261 194.8V343.2C77.2261 347 80.6261 350 84.4261 350ZM203.886 187.8H189.486C180.286 187.8 179.886 198.4 179.886 200V200.2C179.886 211.2 182.086 222 187.086 231.6C190.286 237.4 194.286 243.2 199.686 246.4C200.286 246.8 202.086 247.6 202.286 247.8C204.686 248.8 206.886 249.2 208.886 249.2C220.086 249.2 223.486 235 223.486 235V271.2C223.486 271.2 220.486 265.6 201.486 253.4C201.486 253.4 200.086 252.4 199.686 252C189.886 244.8 183.286 230.6 179.886 221V343.2C179.886 347 182.886 350 186.686 350H203.886C222.086 350 235.686 339.6 243.486 323L238.886 353H143.086C146.886 351.2 149.286 347.4 149.286 343.2V194.8C149.286 190.4 146.886 186.6 143.086 184.8H238.886L243.486 214.8C235.686 198.2 222.086 187.8 203.886 187.8ZM317.815 291.6L347.215 184.8H384.015C380.615 188.2 377.615 195 377.615 200V343C377.615 347.4 380.215 351.2 384.015 353H341.015C344.815 351.2 347.215 347.4 347.215 343V196.2L304.215 353L260.415 203.8V343.2C260.415 347.4 262.615 351.2 266.415 353.2H251.215C255.015 351.2 257.415 347.4 257.415 343.2V193.8C256.815 189.4 253.615 185.8 251.215 184.8H286.615L317.815 291.6ZM447.542 183.8C477.742 183.8 502.142 222 502.142 268.8C502.142 315.8 477.742 354 447.542 354C417.342 354 392.742 315.8 392.742 268.8C392.742 222 417.342 183.8 447.542 183.8ZM447.542 350.8C460.942 350.8 471.742 314 471.742 268.8C471.742 223.6 460.942 186.8 447.542 186.8C434.142 186.8 423.342 223.6 423.342 268.8C423.342 314 434.142 350.8 447.542 350.8ZM601.632 184.8H616.632C613.032 186.6 610.632 190.4 610.632 194.6V343.2C610.632 347.4 613.032 351.2 616.632 353H580.832L519.832 200V343.2C519.832 347.4 522.232 351.2 526.032 353H510.832C514.632 351.2 516.832 347.4 516.832 343.2V194.6C516.832 193 516.632 191.6 516.032 190.2L515.832 190C514.832 187.8 513.232 185.8 510.832 184.8H546.632L607.632 337.8V194.6C607.632 190.4 605.232 186.6 601.632 184.8Z" fill="#232323"/>
</svg>
