<svg width="1249" height="171" viewBox="0 0 1249 171" fill="none" xmlns="http://www.w3.org/2000/svg">
<path d="M44.163 166.5H55.363C73.563 166.5 87.163 156.1 95.163 139.5L90.363 169.5H0.162964C3.96296 167.7 6.36296 163.9 6.36296 159.5V11.3C6.36296 6.89999 3.96296 3.09999 0.162964 1.29999H43.163C39.363 3.09999 36.963 6.89999 36.963 11.3V159.7C36.963 163.5 40.363 166.5 44.163 166.5ZM145.823 169.5H102.823C106.623 167.7 109.023 163.9 109.023 159.5V11.1C109.023 6.89999 106.623 3.09999 102.823 1.1H145.823V1.29999C141.823 3.09999 139.423 6.89999 139.423 11.3V159.5C139.423 163.9 141.823 167.7 145.823 169.5ZM158.33 1.29999H267.73L272.33 31.3C264.93 15.7 252.33 5.29999 235.53 4.29999H235.13C231.53 4.29999 228.13 7.5 228.13 11.1V159.5C228.13 163.9 230.53 167.7 234.53 169.5H191.53C195.33 167.7 197.73 163.9 197.73 159.5V11.3C197.73 10.7 197.73 10.3 197.53 9.89999C197.13 6.5 193.73 4.29999 190.33 4.29999H189.93C173.33 5.5 160.93 15.7 153.53 31.3L158.33 1.29999ZM286.771 1.29999H396.171L400.771 31.3C393.371 15.7 380.771 5.29999 363.971 4.29999H363.571C359.971 4.29999 356.571 7.5 356.571 11.1V159.5C356.571 163.9 358.971 167.7 362.971 169.5H319.971C323.771 167.7 326.171 163.9 326.171 159.5V11.3C326.171 10.7 326.171 10.3 325.971 9.89999C325.571 6.5 322.171 4.29999 318.771 4.29999H318.371C301.771 5.5 289.371 15.7 281.971 31.3L286.771 1.29999ZM452.459 166.5H463.659C481.859 166.5 495.459 156.1 503.459 139.5L498.659 169.5H408.459C412.259 167.7 414.659 163.9 414.659 159.5V11.3C414.659 6.89999 412.259 3.09999 408.459 1.29999H451.459C447.659 3.09999 445.259 6.89999 445.259 11.3V159.7C445.259 163.5 448.659 166.5 452.459 166.5ZM571.919 4.29999H557.519C548.319 4.29999 547.919 14.9 547.919 16.5V16.7C547.919 27.7 550.119 38.5 555.119 48.1C558.319 53.9 562.319 59.7 567.719 62.9C568.319 63.3 570.119 64.1 570.319 64.3C572.719 65.3 574.919 65.7 576.919 65.7C588.119 65.7 591.519 51.5 591.519 51.5V87.7C591.519 87.7 588.519 82.1 569.519 69.9C569.519 69.9 568.119 68.9 567.719 68.5C557.919 61.3 551.319 47.1 547.919 37.5V159.7C547.919 163.5 550.919 166.5 554.719 166.5H571.919C590.119 166.5 603.719 156.1 611.519 139.5L606.919 169.5H511.119C514.919 167.7 517.319 163.9 517.319 159.7V11.3C517.319 6.89999 514.919 3.09999 511.119 1.29999H606.919L611.519 31.3C603.719 14.7 590.119 4.29999 571.919 4.29999ZM716.689 166.5H727.889C746.089 166.5 759.689 156.1 767.689 139.5L762.889 169.5H672.689C676.489 167.7 678.889 163.9 678.889 159.5V11.3C678.889 6.89999 676.489 3.09999 672.689 1.29999H715.689C711.889 3.09999 709.489 6.89999 709.489 11.3V159.7C709.489 163.5 712.889 166.5 716.689 166.5ZM836.149 4.29999H821.749C812.549 4.29999 812.149 14.9 812.149 16.5V16.7C812.149 27.7 814.349 38.5 819.349 48.1C822.549 53.9 826.549 59.7 831.949 62.9C832.549 63.3 834.349 64.1 834.549 64.3C836.949 65.3 839.149 65.7 841.149 65.7C852.349 65.7 855.749 51.5 855.749 51.5V87.7C855.749 87.7 852.749 82.1 833.749 69.9C833.749 69.9 832.349 68.9 831.949 68.5C822.149 61.3 815.549 47.1 812.149 37.5V159.7C812.149 163.5 815.149 166.5 818.949 166.5H836.149C854.349 166.5 867.949 156.1 875.749 139.5L871.149 169.5H775.349C779.149 167.7 781.549 163.9 781.549 159.7V11.3C781.549 6.89999 779.149 3.09999 775.349 1.29999H871.149L875.749 31.3C867.949 14.7 854.349 4.29999 836.149 4.29999ZM950.078 108.1L979.478 1.29999H1016.28C1012.88 4.7 1009.88 11.5 1009.88 16.5V159.5C1009.88 163.9 1012.48 167.7 1016.28 169.5H973.278C977.078 167.7 979.478 163.9 979.478 159.5V12.7L936.478 169.5L892.678 20.3V159.7C892.678 163.9 894.878 167.7 898.678 169.7H883.478C887.278 167.7 889.678 163.9 889.678 159.7V10.3C889.078 5.89999 885.878 2.29999 883.478 1.29999H918.878L950.078 108.1ZM1079.81 0.299994C1110.01 0.299994 1134.41 38.5 1134.41 85.3C1134.41 132.3 1110.01 170.5 1079.81 170.5C1049.61 170.5 1025.01 132.3 1025.01 85.3C1025.01 38.5 1049.61 0.299994 1079.81 0.299994ZM1079.81 167.3C1093.21 167.3 1104.01 130.5 1104.01 85.3C1104.01 40.1 1093.21 3.29999 1079.81 3.29999C1066.41 3.29999 1055.61 40.1 1055.61 85.3C1055.61 130.5 1066.41 167.3 1079.81 167.3ZM1233.89 1.29999H1248.89C1245.29 3.09999 1242.89 6.89999 1242.89 11.1V159.7C1242.89 163.9 1245.29 167.7 1248.89 169.5H1213.09L1152.09 16.5V159.7C1152.09 163.9 1154.49 167.7 1158.29 169.5H1143.09C1146.89 167.7 1149.09 163.9 1149.09 159.7V11.1C1149.09 9.5 1148.89 8.09999 1148.29 6.7L1148.09 6.5C1147.09 4.29999 1145.49 2.29999 1143.09 1.29999H1178.89L1239.89 154.3V11.1C1239.89 6.89999 1237.49 3.09999 1233.89 1.29999Z" fill="#232323"/>
</svg>
