<svg width="32" height="32" viewBox="0 0 32 32" fill="none" xmlns="http://www.w3.org/2000/svg">
<path d="M6.39994 4.2666C5.22127 4.2666 4.2666 5.22127 4.2666 6.39994V25.5999C4.2666 26.7786 5.22127 27.7333 6.39994 27.7333H25.5999C26.7786 27.7333 27.7333 26.7786 27.7333 25.5999V6.39994C27.7333 5.22127 26.7786 4.2666 25.5999 4.2666H6.39994ZM9.22494 9.59994H14.1437L17.0145 13.7041L20.5666 9.59994H22.1145L17.7104 14.6999L23.0979 22.3999H18.1791L14.9937 17.8458L11.0604 22.3999H9.48744L14.2937 16.8479L9.22494 9.59994ZM11.6041 10.8624L18.8083 21.1312H20.7166L13.5104 10.8624H11.6041Z" fill="#FFF6EF"/>
</svg>
